<?xml version="1.0" encoding="utf-8"?>
<!-- Generator: Adobe Illustrator 21.0.1, SVG Export Plug-In . SVG Version: 6.00 Build 0)  -->
<svg version="1.1" id="Capa_1" xmlns="http://www.w3.org/2000/svg" xmlns:xlink="http://www.w3.org/1999/xlink" x="0px" y="0px"
	 viewBox="0 0 489 536" style="enable-background:new 0 0 489 536;" xml:space="preserve">
<style type="text/css">
	.st0{fill:#671F01;}
</style>
<path id="XMLID_264_" class="st0" d="M399.6,166.3l-20.2-15.9c-2.8-2.2-6.5-2.8-9.9-1.5l-26.8,10.5v-42.3c0-3.1-1.4-5.9-3.8-7.8
	l-20.2-15.9c-2.8-2.2-6.5-2.8-9.9-1.5l-26.9,10.6V67.9c0-3.1-1.4-5.9-3.8-7.8l-20.2-15.9c-2.8-2.2-6.5-2.8-9.9-1.5l-40.6,15.9
	c-3.8,1.5-6.3,5.2-6.3,9.3v34.5l-27-10.6c-3.3-1.3-7.1-0.7-9.9,1.5l-20.2,15.9c-2.4,1.9-3.8,4.8-3.8,7.8v42.3l-26.7-10.5
	c-3.3-1.3-7.1-0.7-9.9,1.5l-20.2,15.9c-2.4,1.9-3.8,4.8-3.8,7.8v181.8c0,0.1,0,0.2,0,0.3c0.2,32.5,11.8,63.1,33.4,87.3
	c27.2,30.5,68.4,47.9,113,47.9c36.7,0,72.5-11.2,103.4-32.4c30.1-20.6,53.3-49.7,65.1-81.8c8.1-21.9,8.5-35.6,8.5-56.2V174.2
	C403.4,171.1,402,168.2,399.6,166.3z M383.4,321c0,19.5-0.3,30.5-7.3,49.2c-22.1,59.6-83.7,101.2-149.8,101.2
	c-39.4,0-74.3-14.7-98.1-41.3c-21.5-24-31.3-55.4-27.6-88.4c6-53.3,57.7-96.7,115.4-96.7c28.9,0,54.3,10.7,71.7,30.1
	c15.6,17.5,22.7,40.3,20,64.3c-3.8,33.9-36.8,61.5-73.6,61.5c-18.3,0-34.4-6.7-45.3-19c-9.8-10.9-14.2-25.2-12.5-40.3
	c1.6-14.3,16.2-26.3,31.8-26.3c7.7,0,14.4,2.8,18.9,7.8c3.9,4.4,5.7,10.2,5,16.3c-0.6,5.5,3.3,10.4,8.8,11
	c5.5,0.6,10.4-3.3,11.1-8.8c1.3-11.8-2.2-23.1-10-31.8c-8.2-9.2-20.6-14.5-33.8-14.5c-12.5,0-24.7,4.5-34.3,12.7
	c-9.9,8.3-16,19.5-17.4,31.4c-2.3,20.8,3.9,40.6,17.5,55.8c14.6,16.3,36.5,25.6,60.2,25.6c22.6,0,44.7-8.2,62.2-23
	c17.7-14.9,28.8-34.9,31.2-56.3c3.3-29.7-5.6-58.1-25-79.9c-20.9-23.4-52.5-36.8-86.6-36.8c-32.7,0-64.7,11.8-90.1,33.3
	c-10.3,8.7-19,18.5-26,29.1V179l11.9-9.4l28.7,11.3v29.8c0,5.5,4.5,10,10,10s10-4.5,10-10V122l11.9-9.4l28.9,11.4v69.5
	c0,5.5,4.5,10,10,10s10-4.5,10-10V74.8l28.9-11.4l11.9,9.4v125.9c0,5.5,4.5,10,10,10s10-4.5,10-10v-74.8l28.9-11.4l11.9,9.4v120.7
	c0,5.5,4.5,10,10,10s10-4.5,10-10v-61.8l28.7-11.3l11.9,9.4L383.4,321L383.4,321z"/>
</svg>
