<?xml version="1.0" encoding="iso-8859-1"?>
<!-- Generator: Adobe Illustrator 19.0.0, SVG Export Plug-In . SVG Version: 6.00 Build 0)  -->
<svg version="1.1" id="Capa_1" xmlns="http://www.w3.org/2000/svg" xmlns:xlink="http://www.w3.org/1999/xlink" x="0px" y="0px"
	 viewBox="0 0 460.527 460.527" style="enable-background:new 0 0 460.527 460.527;" xml:space="preserve">
<path fill="#671f01" id="XMLID_304_" d="M449.772,194.957l-64.095-28.669c-1.284-0.574-2.676-0.871-4.083-0.871h-44.39l-23.461-40.636
	c-1.786-3.094-5.088-5-8.66-5h-42.042v-12.885l24.826-30.081c3.05-3.695,3.05-9.035,0-12.73l-49.892-60.45
	C236.076,1.333,233.248,0,230.264,0s-5.813,1.333-7.713,3.635l-49.892,60.45c-3.05,3.695-3.05,9.035,0,12.73l24.826,30.08v12.886
	h-42.042c-3.572,0-6.874,1.906-8.66,5l-23.462,40.636H78.934c-1.407,0-2.799,0.297-4.083,0.871l-64.096,28.669
	c-3.6,1.61-5.917,5.186-5.917,9.129v25.397c0,5.522,4.478,10,10,10h65.721l-8.597,14.89c-1.786,3.094-1.786,6.906,0,10
	l22.026,38.151l-12.192,7.04c-1.061,0.612-1.999,1.414-2.77,2.365l-50.903,62.829c-2.607,3.218-2.961,7.709-0.891,11.295
	l12.699,21.995c1.327,2.299,3.515,3.977,6.08,4.661c2.562,0.684,5.296,0.323,7.594-1.009l77.491-44.905l15.687,27.17
	c1.786,3.094,5.088,5,8.66,5h37.86l28.016,56.033c1.694,3.389,5.156,5.528,8.944,5.528s7.25-2.14,8.944-5.528l28.016-56.033h37.86
	c3.572,0,6.874-1.906,8.66-5l15.887-27.518l78.096,45.253c2.298,1.332,5.03,1.692,7.595,1.009c2.564-0.686,4.752-2.362,6.079-4.662
	l12.697-21.994c2.07-3.587,1.717-8.077-0.89-11.295l-50.901-62.829c-0.771-0.951-1.71-1.753-2.771-2.365l-12.798-7.389
	l21.825-37.803c1.786-3.094,1.786-6.906,0-10l-8.597-14.89h65.723c5.522,0,10-4.478,10-10v-25.397
	C455.689,200.143,453.372,196.567,449.772,194.957z M193.338,70.45l36.926-44.74l36.926,44.74l-21.86,26.487
	c-1.479,1.792-2.287,4.042-2.287,6.365v16.479h-25.557v-16.479c0-2.323-0.809-4.573-2.287-6.365L193.338,70.45z M24.838,219.483
	v-8.916l56.23-25.15h30.706l-19.669,34.066H24.838z M52.244,389.375l-4.254-7.368l45.41-56.048l10.589-6.114l17.107,29.631
	L52.244,389.375z M230.264,428.166l-14.6-29.2h29.199L230.264,428.166z M367.933,325.959l45.407,56.049l-4.252,7.367l-69.457-40.247
	l17.107-29.632L367.933,325.959z M299.311,378.966H161.217L92.169,259.373l69.048-119.592h138.094l69.046,119.592L299.311,378.966z
	 M435.689,219.483h-67.27l-19.668-34.066h30.708l56.229,25.15V219.483z M241.266,259.373c0,5.522-4.478,10-10,10h-2.004
	c-5.522,0-10-4.478-10-10s4.478-10,10-10h2.004C236.788,249.373,241.266,253.851,241.266,259.373z M254.185,207.941h-47.842
	c-3.572,0-6.874,1.906-8.66,5l-23.922,41.432c-1.786,3.094-1.786,6.906,0,10l23.922,41.433c1.786,3.094,5.088,5,8.66,5h47.842
	c3.572,0,6.874-1.906,8.66-5l23.921-41.433c1.786-3.094,1.786-6.906,0-10l-23.921-41.432
	C261.059,209.848,257.757,207.941,254.185,207.941z M248.411,290.806h-36.295l-18.148-31.433l18.148-31.432h36.295l18.147,31.432
	L248.411,290.806z M288.734,168.098c-1.786-3.094-5.088-5-8.66-5h-99.622c-3.572,0-6.874,1.906-8.66,5l-49.811,86.275
	c-1.786,3.094-1.786,6.906,0,10l49.811,86.274c1.786,3.094,5.088,5,8.66,5h99.622c3.572,0,6.874-1.906,8.66-5l49.812-86.274
	c1.786-3.094,1.786-6.906,0-10L288.734,168.098z M274.301,335.647h-88.075l-44.037-76.274l44.037-76.275h88.075l44.038,76.275
	L274.301,335.647z"/>
<g>
</g>
<g>
</g>
<g>
</g>
<g>
</g>
<g>
</g>
<g>
</g>
<g>
</g>
<g>
</g>
<g>
</g>
<g>
</g>
<g>
</g>
<g>
</g>
<g>
</g>
<g>
</g>
<g>
</g>
</svg>
