<?xml version="1.0" encoding="iso-8859-1"?>
<!-- Generator: Adobe Illustrator 19.0.0, SVG Export Plug-In . SVG Version: 6.00 Build 0)  -->
<svg version="1.1" id="Capa_1" xmlns="http://www.w3.org/2000/svg" xmlns:xlink="http://www.w3.org/1999/xlink" x="0px" y="0px"
	 viewBox="0 0 393.623 393.623" style="enable-background:new 0 0 393.623 393.623;" xml:space="preserve">
<path fill="#671f01" id="XMLID_507_" d="M319.072,196.812l71.622-71.623c2.859-2.86,3.715-7.161,2.168-10.897c-1.548-3.737-5.194-6.173-9.239-6.173
	h-83.977l61.625-61.622c2.859-2.86,3.716-7.161,2.168-10.898s-5.194-6.173-9.239-6.173H39.425c-4.045,0-7.691,2.437-9.239,6.173
	c-1.547,3.737-0.691,8.038,2.168,10.898l61.624,61.622H10c-4.045,0-7.691,2.437-9.239,6.173c-1.547,3.737-0.691,8.038,2.168,10.897
	l71.622,71.623L2.929,268.433c-2.859,2.86-3.715,7.161-2.168,10.898c1.548,3.737,5.194,6.173,9.239,6.173h83.978l-61.624,61.623
	c-2.859,2.86-3.715,7.161-2.168,10.898c1.548,3.737,5.194,6.173,9.239,6.173H354.2c4.045,0,7.691-2.437,9.239-6.173
	s0.691-8.038-2.168-10.898l-61.625-61.623h83.977c4.045,0,7.691-2.437,9.239-6.173c1.547-3.736,0.691-8.038-2.168-10.898
	L319.072,196.812z M63.568,49.425h266.49l-58.695,58.693h-149.1L63.568,49.425z M261.362,196.812l-64.55,64.55l-64.551-64.55
	l64.551-64.552L261.362,196.812z M34.143,265.505l61.622-61.621c1.875-1.875,2.929-4.419,2.929-7.071s-1.054-5.196-2.929-7.071
	l-61.623-61.623h138.529l-61.622,61.623c-3.905,3.905-3.905,10.237,0,14.142l61.622,61.621H34.143z M330.058,344.198H63.568
	l58.694-58.694h149.101L330.058,344.198z M220.954,265.505l61.621-61.621c3.905-3.905,3.905-10.237,0-14.142l-61.621-61.623h138.527
	l-61.622,61.623c-3.905,3.905-3.905,10.237,0,14.142l61.622,61.621H220.954z"/>
<g>
</g>
<g>
</g>
<g>
</g>
<g>
</g>
<g>
</g>
<g>
</g>
<g>
</g>
<g>
</g>
<g>
</g>
<g>
</g>
<g>
</g>
<g>
</g>
<g>
</g>
<g>
</g>
<g>
</g>
</svg>
