<?xml version="1.0" encoding="iso-8859-1"?>
<!-- Generator: Adobe Illustrator 19.0.0, SVG Export Plug-In . SVG Version: 6.00 Build 0)  -->
<svg version="1.1" id="Capa_1" xmlns="http://www.w3.org/2000/svg" xmlns:xlink="http://www.w3.org/1999/xlink" x="0px" y="0px"
	 viewBox="0 0 429.6 429.6" style="enable-background:new 0 0 429.6 429.6;" xml:space="preserve">
<path fill="#671f01" id="XMLID_489_" d="M0,112.399c0-5.523,4.478-10,10-10h67.895L43.765,68.27c-3.905-3.906-3.905-10.237,0-14.143
	c3.908-3.905,10.238-3.905,14.143,0l51.199,51.199c3.905,3.905,3.905,10.237,0,14.142l-51.199,51.202
	c-1.952,1.953-4.512,2.929-7.071,2.929s-5.118-0.976-7.071-2.929c-3.905-3.905-3.905-10.237,0-14.142l34.129-34.13H10
	C4.478,122.399,0,117.922,0,112.399z M105.328,68.27c-3.905-3.905-3.905-10.237,0-14.142c3.906-3.905,10.236-3.906,14.143,0
	l48.271,48.272h165.057V61.199c0-3.688,2.03-7.077,5.281-8.817c3.253-1.74,7.198-1.549,10.266,0.496l76.801,51.2
	c2.782,1.854,4.453,4.977,4.453,8.32c0,3.343-1.671,6.466-4.453,8.32l-76.801,51.202c-3.921,2.316-7.421,2.212-10.266,0.497
	c-3.158-1.904-5.281-5.129-5.281-8.817v-41.201H167.741l-48.271,48.272c-3.906,3.905-10.236,3.906-14.143,0
	c-3.905-3.905-3.905-10.237,0-14.142l44.13-44.131L105.328,68.27z M352.799,144.915l48.773-32.517l-48.773-32.515V144.915z
	 M324.271,361.33c3.905,3.905,3.905,10.237,0,14.142c-1.953,1.952-4.513,2.929-7.071,2.929c-2.56,0-5.118-0.976-7.071-2.929
	L261.858,327.2H96.801v41.201c0,3.688-2.03,7.077-5.281,8.817c-3.252,1.74-7.198,1.549-10.266-0.497L4.453,325.519
	C1.671,323.665,0,320.542,0,317.199c0-3.344,1.671-6.466,4.453-8.32l76.801-51.2c3.067-2.045,7.014-2.237,10.266-0.497
	c3.251,1.74,5.281,5.129,5.281,8.817V307.2h165.056l48.272-48.272c3.906-3.904,10.236-3.904,14.143,0
	c3.905,3.905,3.905,10.237,0,14.143l-44.13,44.129L324.271,361.33z M76.801,284.684l-48.773,32.515l48.773,32.517V284.684z
	 M419.6,307.2h-67.894l34.13-34.13c3.905-3.905,3.905-10.237,0-14.143c-3.906-3.904-10.236-3.904-14.143,0l-51.2,51.201
	c-3.905,3.905-3.905,10.236,0,14.142l51.2,51.202c1.953,1.953,4.512,2.929,7.071,2.929c2.559,0,5.118-0.977,7.071-2.929
	c3.905-3.905,3.905-10.237,0-14.142l-34.129-34.13H419.6c5.522,0,10-4.477,10-10S425.122,307.2,419.6,307.2z"/>
<g>
</g>
<g>
</g>
<g>
</g>
<g>
</g>
<g>
</g>
<g>
</g>
<g>
</g>
<g>
</g>
<g>
</g>
<g>
</g>
<g>
</g>
<g>
</g>
<g>
</g>
<g>
</g>
<g>
</g>
</svg>
